<?xml version="1.0" encoding="UTF-8" standalone="no"?>
<!DOCTYPE svg PUBLIC "-//W3C//DTD SVG 1.1//EN"
 "http://www.w3.org/Graphics/SVG/1.1/DTD/svg11.dtd">
<!-- Generated by graphviz version 2.43.0 (0)
 -->
<!-- Title: snakemake_dag Pages: 1 -->
<svg width="794pt" height="692pt"
 viewBox="0.00 0.00 793.50 692.00" xmlns="http://www.w3.org/2000/svg" xmlns:xlink="http://www.w3.org/1999/xlink">
<g id="graph0" class="graph" transform="scale(1 1) rotate(0) translate(4 688)">
<title>snakemake_dag</title>
<polygon fill="white" stroke="transparent" points="-4,4 -4,-688 789.5,-688 789.5,4 -4,4"/>
<!-- 0 -->
<g id="node1" class="node">
<title>0</title>
<path fill="none" stroke="#d87d56" stroke-width="2" d="M323.5,-36C323.5,-36 293.5,-36 293.5,-36 287.5,-36 281.5,-30 281.5,-24 281.5,-24 281.5,-12 281.5,-12 281.5,-6 287.5,0 293.5,0 293.5,0 323.5,0 323.5,0 329.5,0 335.5,-6 335.5,-12 335.5,-12 335.5,-24 335.5,-24 335.5,-30 329.5,-36 323.5,-36"/>
<text text-anchor="middle" x="308.5" y="-15.5" font-family="sans" font-size="10.00">all</text>
</g>
<!-- 1 -->
<g id="node2" class="node">
<title>1</title>
<path fill="none" stroke="#56d87b" stroke-width="2" d="M59,-540C59,-540 12,-540 12,-540 6,-540 0,-534 0,-528 0,-528 0,-516 0,-516 0,-510 6,-504 12,-504 12,-504 59,-504 59,-504 65,-504 71,-510 71,-516 71,-516 71,-528 71,-528 71,-534 65,-540 59,-540"/>
<text text-anchor="middle" x="35.5" y="-519.5" font-family="sans" font-size="10.00">raw_multiqc</text>
</g>
<!-- 1&#45;&gt;0 -->
<g id="edge10" class="edge">
<title>1&#45;&gt;0</title>
<path fill="none" stroke="grey" stroke-width="2" d="M38.07,-504C41.86,-477.4 48.5,-424.3 48.5,-379 48.5,-379 48.5,-379 48.5,-161 48.5,-118.16 52.88,-99.76 85.5,-72 113.19,-48.44 214.96,-31.51 270.95,-23.75"/>
<polygon fill="grey" stroke="grey" stroke-width="2" points="271.74,-27.18 281.18,-22.36 270.8,-20.24 271.74,-27.18"/>
</g>
<!-- 2 -->
<g id="node3" class="node">
<title>2</title>
<path fill="none" stroke="#56d8a2" stroke-width="2" d="M86.5,-684C86.5,-684 56.5,-684 56.5,-684 50.5,-684 44.5,-678 44.5,-672 44.5,-672 44.5,-660 44.5,-660 44.5,-654 50.5,-648 56.5,-648 56.5,-648 86.5,-648 86.5,-648 92.5,-648 98.5,-654 98.5,-660 98.5,-660 98.5,-672 98.5,-672 98.5,-678 92.5,-684 86.5,-684"/>
<text text-anchor="middle" x="71.5" y="-663.5" font-family="sans" font-size="10.00">raw_qc</text>
</g>
<!-- 2&#45;&gt;1 -->
<g id="edge11" class="edge">
<title>2&#45;&gt;1</title>
<path fill="none" stroke="grey" stroke-width="2" d="M65.55,-647.94C62.07,-637.62 57.73,-624.14 54.5,-612 49.04,-591.52 44.09,-568.06 40.61,-550.37"/>
<polygon fill="grey" stroke="grey" stroke-width="2" points="43.97,-549.34 38.64,-540.18 37.1,-550.66 43.97,-549.34"/>
</g>
<!-- 3 -->
<g id="node4" class="node">
<title>3</title>
<path fill="none" stroke="#9fd856" stroke-width="2" d="M139.5,-612C139.5,-612 75.5,-612 75.5,-612 69.5,-612 63.5,-606 63.5,-600 63.5,-600 63.5,-588 63.5,-588 63.5,-582 69.5,-576 75.5,-576 75.5,-576 139.5,-576 139.5,-576 145.5,-576 151.5,-582 151.5,-588 151.5,-588 151.5,-600 151.5,-600 151.5,-606 145.5,-612 139.5,-612"/>
<text text-anchor="middle" x="107.5" y="-591.5" font-family="sans" font-size="10.00">get_overrep_fa</text>
</g>
<!-- 2&#45;&gt;3 -->
<g id="edge12" class="edge">
<title>2&#45;&gt;3</title>
<path fill="none" stroke="grey" stroke-width="2" d="M80.4,-647.7C84.5,-639.73 89.45,-630.1 93.99,-621.26"/>
<polygon fill="grey" stroke="grey" stroke-width="2" points="97.24,-622.6 98.7,-612.1 91.02,-619.4 97.24,-622.6"/>
</g>
<!-- 3&#45;&gt;0 -->
<g id="edge4" class="edge">
<title>3&#45;&gt;0</title>
<path fill="none" stroke="grey" stroke-width="2" d="M105.92,-575.97C103.59,-549.33 99.5,-496.19 99.5,-451 99.5,-451 99.5,-451 99.5,-161 99.5,-78.89 211.22,-40.94 271.3,-26.47"/>
<polygon fill="grey" stroke="grey" stroke-width="2" points="272.22,-29.85 281.18,-24.19 270.65,-23.03 272.22,-29.85"/>
</g>
<!-- 6 -->
<g id="node7" class="node">
<title>6</title>
<path fill="none" stroke="#56d8c9" stroke-width="2" d="M192,-540C192,-540 159,-540 159,-540 153,-540 147,-534 147,-528 147,-528 147,-516 147,-516 147,-510 153,-504 159,-504 159,-504 192,-504 192,-504 198,-504 204,-510 204,-516 204,-516 204,-528 204,-528 204,-534 198,-540 192,-540"/>
<text text-anchor="middle" x="175.5" y="-519.5" font-family="sans" font-size="10.00">raw_trim</text>
</g>
<!-- 3&#45;&gt;6 -->
<g id="edge15" class="edge">
<title>3&#45;&gt;6</title>
<path fill="none" stroke="grey" stroke-width="2" d="M124.31,-575.7C132.63,-567.14 142.81,-556.66 151.89,-547.3"/>
<polygon fill="grey" stroke="grey" stroke-width="2" points="154.43,-549.72 158.88,-540.1 149.41,-544.84 154.43,-549.72"/>
</g>
<!-- 4 -->
<g id="node5" class="node">
<title>4</title>
<path fill="none" stroke="#56a2d8" stroke-width="2" d="M211,-324C211,-324 140,-324 140,-324 134,-324 128,-318 128,-312 128,-312 128,-300 128,-300 128,-294 134,-288 140,-288 140,-288 211,-288 211,-288 217,-288 223,-294 223,-300 223,-300 223,-312 223,-312 223,-318 217,-324 211,-324"/>
<text text-anchor="middle" x="175.5" y="-303.5" font-family="sans" font-size="10.00">trimmed_multiqc</text>
</g>
<!-- 4&#45;&gt;0 -->
<g id="edge7" class="edge">
<title>4&#45;&gt;0</title>
<path fill="none" stroke="grey" stroke-width="2" d="M176.27,-287.92C178.85,-247.13 190,-142.21 237.5,-72 246.46,-58.75 259.86,-47.52 272.61,-38.85"/>
<polygon fill="grey" stroke="grey" stroke-width="2" points="274.77,-41.63 281.27,-33.27 270.97,-35.75 274.77,-41.63"/>
</g>
<!-- 5 -->
<g id="node6" class="node">
<title>5</title>
<path fill="none" stroke="#567bd8" stroke-width="2" d="M199.5,-468C199.5,-468 151.5,-468 151.5,-468 145.5,-468 139.5,-462 139.5,-456 139.5,-456 139.5,-444 139.5,-444 139.5,-438 145.5,-432 151.5,-432 151.5,-432 199.5,-432 199.5,-432 205.5,-432 211.5,-438 211.5,-444 211.5,-444 211.5,-456 211.5,-456 211.5,-462 205.5,-468 199.5,-468"/>
<text text-anchor="middle" x="175.5" y="-447.5" font-family="sans" font-size="10.00">trimmed_qc</text>
</g>
<!-- 5&#45;&gt;4 -->
<g id="edge13" class="edge">
<title>5&#45;&gt;4</title>
<path fill="none" stroke="grey" stroke-width="2" d="M175.5,-431.87C175.5,-407.67 175.5,-363.21 175.5,-334.39"/>
<polygon fill="grey" stroke="grey" stroke-width="2" points="179,-334.19 175.5,-324.19 172,-334.19 179,-334.19"/>
</g>
<!-- 6&#45;&gt;5 -->
<g id="edge14" class="edge">
<title>6&#45;&gt;5</title>
<path fill="none" stroke="grey" stroke-width="2" d="M175.5,-503.7C175.5,-495.98 175.5,-486.71 175.5,-478.11"/>
<polygon fill="grey" stroke="grey" stroke-width="2" points="179,-478.1 175.5,-468.1 172,-478.1 179,-478.1"/>
</g>
<!-- 7 -->
<g id="node8" class="node">
<title>7</title>
<path fill="none" stroke="#d85656" stroke-width="2" d="M312.5,-468C312.5,-468 268.5,-468 268.5,-468 262.5,-468 256.5,-462 256.5,-456 256.5,-456 256.5,-444 256.5,-444 256.5,-438 262.5,-432 268.5,-432 268.5,-432 312.5,-432 312.5,-432 318.5,-432 324.5,-438 324.5,-444 324.5,-444 324.5,-456 324.5,-456 324.5,-462 318.5,-468 312.5,-468"/>
<text text-anchor="middle" x="290.5" y="-447.5" font-family="sans" font-size="10.00">align_reads</text>
</g>
<!-- 6&#45;&gt;7 -->
<g id="edge16" class="edge">
<title>6&#45;&gt;7</title>
<path fill="none" stroke="grey" stroke-width="2" d="M203.63,-503.88C218.67,-494.72 237.37,-483.34 253.56,-473.48"/>
<polygon fill="grey" stroke="grey" stroke-width="2" points="255.54,-476.38 262.26,-468.19 251.9,-470.4 255.54,-476.38"/>
</g>
<!-- 7&#45;&gt;0 -->
<g id="edge1" class="edge">
<title>7&#45;&gt;0</title>
<path fill="none" stroke="grey" stroke-width="2" d="M282.61,-431.93C271.21,-405.67 251.5,-353.53 251.5,-307 251.5,-307 251.5,-307 251.5,-161 251.5,-117.8 274.5,-72.19 291.28,-44.66"/>
<polygon fill="grey" stroke="grey" stroke-width="2" points="294.33,-46.37 296.69,-36.04 288.41,-42.65 294.33,-46.37"/>
</g>
<!-- 8 -->
<g id="node9" class="node">
<title>8</title>
<path fill="none" stroke="#78d856" stroke-width="2" d="M341,-396C341,-396 292,-396 292,-396 286,-396 280,-390 280,-384 280,-384 280,-372 280,-372 280,-366 286,-360 292,-360 292,-360 341,-360 341,-360 347,-360 353,-366 353,-372 353,-372 353,-384 353,-384 353,-390 347,-396 341,-396"/>
<text text-anchor="middle" x="316.5" y="-375.5" font-family="sans" font-size="10.00">infer_strand</text>
</g>
<!-- 7&#45;&gt;8 -->
<g id="edge17" class="edge">
<title>7&#45;&gt;8</title>
<path fill="none" stroke="grey" stroke-width="2" d="M296.93,-431.7C299.86,-423.81 303.39,-414.3 306.64,-405.55"/>
<polygon fill="grey" stroke="grey" stroke-width="2" points="309.95,-406.7 310.15,-396.1 303.38,-404.26 309.95,-406.7"/>
</g>
<!-- 10 -->
<g id="node11" class="node">
<title>10</title>
<path fill="none" stroke="#c6d856" stroke-width="2" d="M432.5,-252C432.5,-252 388.5,-252 388.5,-252 382.5,-252 376.5,-246 376.5,-240 376.5,-240 376.5,-228 376.5,-228 376.5,-222 382.5,-216 388.5,-216 388.5,-216 432.5,-216 432.5,-216 438.5,-216 444.5,-222 444.5,-228 444.5,-228 444.5,-240 444.5,-240 444.5,-246 438.5,-252 432.5,-252"/>
<text text-anchor="middle" x="410.5" y="-231.5" font-family="sans" font-size="10.00">get_counts</text>
</g>
<!-- 7&#45;&gt;10 -->
<g id="edge19" class="edge">
<title>7&#45;&gt;10</title>
<path fill="none" stroke="grey" stroke-width="2" d="M322.21,-431.98C356.27,-411.58 408.12,-373.81 427.5,-324 435.34,-303.84 429.85,-279.65 423.09,-261.58"/>
<polygon fill="grey" stroke="grey" stroke-width="2" points="426.3,-260.18 419.28,-252.24 419.82,-262.82 426.3,-260.18"/>
</g>
<!-- 8&#45;&gt;0 -->
<g id="edge9" class="edge">
<title>8&#45;&gt;0</title>
<path fill="none" stroke="grey" stroke-width="2" d="M311.04,-359.71C303.15,-333.18 289.5,-280.67 289.5,-235 289.5,-235 289.5,-235 289.5,-161 289.5,-120.86 297.05,-74.9 302.63,-46.4"/>
<polygon fill="grey" stroke="grey" stroke-width="2" points="306.11,-46.88 304.66,-36.39 299.24,-45.5 306.11,-46.88"/>
</g>
<!-- 9 -->
<g id="node10" class="node">
<title>9</title>
<path fill="none" stroke="#56c9d8" stroke-width="2" d="M407,-324C407,-324 330,-324 330,-324 324,-324 318,-318 318,-312 318,-312 318,-300 318,-300 318,-294 324,-288 330,-288 330,-288 407,-288 407,-288 413,-288 419,-294 419,-300 419,-300 419,-312 419,-312 419,-318 413,-324 407,-324"/>
<text text-anchor="middle" x="368.5" y="-303.5" font-family="sans" font-size="10.00">summarize_strand</text>
</g>
<!-- 8&#45;&gt;9 -->
<g id="edge18" class="edge">
<title>8&#45;&gt;9</title>
<path fill="none" stroke="grey" stroke-width="2" d="M329.35,-359.7C335.53,-351.39 343.04,-341.28 349.82,-332.14"/>
<polygon fill="grey" stroke="grey" stroke-width="2" points="352.64,-334.22 355.79,-324.1 347.02,-330.04 352.64,-334.22"/>
</g>
<!-- 9&#45;&gt;0 -->
<g id="edge2" class="edge">
<title>9&#45;&gt;0</title>
<path fill="none" stroke="grey" stroke-width="2" d="M364.93,-287.97C354.9,-240.19 326.46,-104.62 314.22,-46.27"/>
<polygon fill="grey" stroke="grey" stroke-width="2" points="317.61,-45.37 312.13,-36.31 310.76,-46.81 317.61,-45.37"/>
</g>
<!-- 9&#45;&gt;10 -->
<g id="edge20" class="edge">
<title>9&#45;&gt;10</title>
<path fill="none" stroke="grey" stroke-width="2" d="M378.88,-287.7C383.76,-279.56 389.69,-269.69 395.08,-260.7"/>
<polygon fill="grey" stroke="grey" stroke-width="2" points="398.09,-262.48 400.24,-252.1 392.09,-258.88 398.09,-262.48"/>
</g>
<!-- 10&#45;&gt;0 -->
<g id="edge8" class="edge">
<title>10&#45;&gt;0</title>
<path fill="none" stroke="grey" stroke-width="2" d="M404.08,-215.68C392.76,-185.76 367.95,-122.69 341.5,-72 336.79,-62.97 331.09,-53.42 325.76,-44.96"/>
<polygon fill="grey" stroke="grey" stroke-width="2" points="328.53,-42.8 320.19,-36.27 322.64,-46.58 328.53,-42.8"/>
</g>
<!-- 11 -->
<g id="node12" class="node">
<title>11</title>
<path fill="none" stroke="#d8c356" stroke-width="2" d="M494.5,-180C494.5,-180 442.5,-180 442.5,-180 436.5,-180 430.5,-174 430.5,-168 430.5,-168 430.5,-156 430.5,-156 430.5,-150 436.5,-144 442.5,-144 442.5,-144 494.5,-144 494.5,-144 500.5,-144 506.5,-150 506.5,-156 506.5,-156 506.5,-168 506.5,-168 506.5,-174 500.5,-180 494.5,-180"/>
<text text-anchor="middle" x="468.5" y="-159.5" font-family="sans" font-size="10.00">clean_counts</text>
</g>
<!-- 10&#45;&gt;11 -->
<g id="edge21" class="edge">
<title>10&#45;&gt;11</title>
<path fill="none" stroke="grey" stroke-width="2" d="M424.84,-215.7C431.79,-207.3 440.27,-197.07 447.9,-187.86"/>
<polygon fill="grey" stroke="grey" stroke-width="2" points="450.64,-190.04 454.33,-180.1 445.25,-185.57 450.64,-190.04"/>
</g>
<!-- 11&#45;&gt;0 -->
<g id="edge3" class="edge">
<title>11&#45;&gt;0</title>
<path fill="none" stroke="grey" stroke-width="2" d="M452.78,-143.86C435.5,-125.38 406.6,-95.45 379.5,-72 367.5,-61.61 353.64,-50.99 341.36,-42.01"/>
<polygon fill="grey" stroke="grey" stroke-width="2" points="343.32,-39.1 333.16,-36.07 339.21,-44.77 343.32,-39.1"/>
</g>
<!-- 12 -->
<g id="node13" class="node">
<title>12</title>
<path fill="none" stroke="#d8a456" stroke-width="2" d="M567.5,-108C567.5,-108 443.5,-108 443.5,-108 437.5,-108 431.5,-102 431.5,-96 431.5,-96 431.5,-84 431.5,-84 431.5,-78 437.5,-72 443.5,-72 443.5,-72 567.5,-72 567.5,-72 573.5,-72 579.5,-78 579.5,-84 579.5,-84 579.5,-96 579.5,-96 579.5,-102 573.5,-108 567.5,-108"/>
<text text-anchor="middle" x="505.5" y="-87.5" font-family="sans" font-size="10.00">basic_differential_expression</text>
</g>
<!-- 11&#45;&gt;12 -->
<g id="edge22" class="edge">
<title>11&#45;&gt;12</title>
<path fill="none" stroke="grey" stroke-width="2" d="M477.65,-143.7C481.9,-135.64 487.06,-125.89 491.77,-116.98"/>
<polygon fill="grey" stroke="grey" stroke-width="2" points="494.88,-118.58 496.46,-108.1 488.69,-115.31 494.88,-118.58"/>
</g>
<!-- 13 -->
<g id="node14" class="node">
<title>13</title>
<path fill="none" stroke="#59d856" stroke-width="2" d="M773.5,-108C773.5,-108 609.5,-108 609.5,-108 603.5,-108 597.5,-102 597.5,-96 597.5,-96 597.5,-84 597.5,-84 597.5,-78 603.5,-72 609.5,-72 609.5,-72 773.5,-72 773.5,-72 779.5,-72 785.5,-78 785.5,-84 785.5,-84 785.5,-96 785.5,-96 785.5,-102 779.5,-108 773.5,-108"/>
<text text-anchor="middle" x="691.5" y="-87.5" font-family="sans" font-size="10.00">intersectional_differential_expression</text>
</g>
<!-- 11&#45;&gt;13 -->
<g id="edge23" class="edge">
<title>11&#45;&gt;13</title>
<path fill="none" stroke="grey" stroke-width="2" d="M506.58,-149.05C539.72,-138.64 588.44,-123.35 627.56,-111.07"/>
<polygon fill="grey" stroke="grey" stroke-width="2" points="628.79,-114.35 637.28,-108.02 626.69,-107.68 628.79,-114.35"/>
</g>
<!-- 12&#45;&gt;0 -->
<g id="edge5" class="edge">
<title>12&#45;&gt;0</title>
<path fill="none" stroke="grey" stroke-width="2" d="M457.56,-71.97C423.03,-59.7 377.13,-43.38 345.43,-32.12"/>
<polygon fill="grey" stroke="grey" stroke-width="2" points="346.26,-28.7 335.67,-28.65 343.92,-35.3 346.26,-28.7"/>
</g>
<!-- 13&#45;&gt;0 -->
<g id="edge6" class="edge">
<title>13&#45;&gt;0</title>
<path fill="none" stroke="grey" stroke-width="2" d="M598.3,-71.97C517.21,-57.15 403.86,-36.43 345.89,-25.83"/>
<polygon fill="grey" stroke="grey" stroke-width="2" points="346.19,-22.33 335.73,-23.98 344.93,-29.22 346.19,-22.33"/>
</g>
</g>
</svg>
